<?xml version="1.0"?>
<svg xmlns="http://www.w3.org/2000/svg" xmlns:xlink="http://www.w3.org/1999/xlink" xmlns:svgjs="http://svgjs.com/svgjs" version="1.1" width="512" height="512" x="0" y="0" viewBox="0 0 512 512" style="enable-background:new 0 0 512 512" xml:space="preserve" class=""><g><g xmlns="http://www.w3.org/2000/svg"><path d="m233.918 170.73c12.13 6.065 25.709 9.27 39.271 9.27 41.807 0 76.879-29.369 85.68-68.558 14.396 6.949 28.049 15.501 40.628 25.564l18.741-23.426c-17.605-14.084-37.048-25.587-57.651-34.275-4.292-44.442-41.849-79.305-87.399-79.305h-13.496c-79.723 0-148.908 54.018-168.244 131.362l-4.659 18.638h59.318c30.324 0 60.688 7.168 87.811 20.73zm25.775-140.73h13.496c24.941 0 46.242 15.877 54.332 38.054-20.159-5.301-41.017-8.054-62.03-8.054-25.153 0-50.061 3.861-74.033 11.477l9.083 28.592c21.031-6.681 42.883-10.069 64.95-10.069 22.122 0 44.047 3.481 64.95 10.129-3.883 28.132-28.07 49.871-57.253 49.871-8.928 0-17.869-2.11-25.854-6.103-31.266-15.634-66.27-23.897-101.228-23.897h-19.532c21.533-53.839 73.798-90 133.119-90z" fill="#78bd8d" data-original="#000000" style=""/><path d="m459.059 220.072-13.812-13.354-29.659 51.371c-15.162 26.261-36.552 48.974-61.858 65.682-11.317 7.473-20.883 17.63-27.663 29.374-21.357 36.991-12.469 81.855 16.532 108.48-13.216 8.993-27.449 16.541-42.453 22.403l10.917 27.943c20.998-8.204 40.679-19.289 58.503-32.785 41.022 18.736 89.741 3.181 112.386-36.041l6.747-11.687c39.863-69.044 27.674-155.969-29.64-211.386zm3.66 196.385-6.748 11.687c-12.643 21.898-37.176 32.124-60.143 28.046 14.678-14.812 27.499-31.506 38.01-49.713 15.614-27.044 25.792-56.428 30.252-87.335l-29.692-4.285c-3.913 27.115-12.842 52.894-26.54 76.62-11.063 19.161-25.042 36.41-41.254 51.191-22.342-17.318-29.269-49.041-14.556-74.525 4.463-7.732 10.761-14.419 18.212-19.338 29.172-19.261 53.831-45.444 71.309-75.718l9.766-16.915c35.861 45.568 41.045 108.911 11.384 160.285z" fill="#78bd8d" data-original="#000000" style=""/><path d="m185.933 353.145c-6.78-11.744-16.346-21.902-27.664-29.375-25.306-16.708-46.696-39.421-61.858-65.682l-29.659-51.371-13.812 13.354c-57.313 55.418-69.502 142.343-29.64 211.386l6.748 11.688c22.844 39.567 71.742 54.603 112.385 36.04 17.824 13.496 37.505 24.582 58.503 32.785l10.917-27.943c-15.004-5.862-29.237-13.41-42.453-22.403 29.004-26.627 37.887-71.493 16.533-108.479zm-129.904 75-6.748-11.688c-29.661-51.374-24.477-114.717 11.383-160.284l9.766 16.915c17.479 30.274 42.137 56.457 71.309 75.718 7.451 4.92 13.749 11.607 18.213 19.339 14.71 25.48 7.79 57.204-14.556 74.524-16.212-14.78-30.191-32.029-41.254-51.19-13.698-23.726-22.627-49.505-26.54-76.621l-29.692 4.285c4.46 30.907 14.638 60.292 30.252 87.336 10.511 18.206 23.332 34.9 38.01 49.712-22.94 4.072-47.486-6.123-60.143-28.046z" fill="#78bd8d" data-original="#000000" style=""/><path d="m341.322 281.891-70.322-35.162v-56.943l-100.322 100.323 70.322 35.162v56.943zm-120 0 19.678-19.678v3.057l49.678 24.839-19.678 19.678v-3.057z" fill="#78bd8d" data-original="#000000" style=""/></g></g></svg>
